<svg width="116" height="27" viewBox="0 0 116 27" fill="none" xmlns="http://www.w3.org/2000/svg">
<g clip-path="url(#clip0_45_35)">
<mask id="mask0_45_35" style="mask-type:luminance" maskUnits="userSpaceOnUse" x="0" y="0" width="116" height="27">
<path d="M115.773 0H0V27H115.773V0Z" fill="white"/>
</mask>
<g mask="url(#mask0_45_35)">
<path d="M21.0634 21.0884H25.4748V10.195H31.2331V21.0884H35.6276V6.43631H21.0634V21.0884Z" fill="#216DC2"/>
<path d="M48.3229 6.43631L44.5514 15.7332L40.9987 6.43631H36.2169L42.2447 21.0884L39.6854 27.0757H44.3493L51.4042 10.4278H56.1691V21.0884H60.5636V10.4278H65.4296V6.43631H48.3229Z" fill="#216DC2"/>
<path d="M76.8958 11.5421H71.1374V6.43631H66.7261V21.0884H71.1374V15.5004H76.8958V21.0884H81.2906V6.43631H76.8958V11.5421Z" fill="#216DC2"/>
<path d="M88.2442 13.3882V6.43631H83.8156V21.0884H85.6008L93.7328 14.1698V21.0884H98.1273V6.43631H96.3428L88.2442 13.3882Z" fill="#216DC2"/>
<path d="M110.2 13.621L115.487 6.43631H110.233L105.148 13.621L110.519 21.0884H115.773L110.2 13.621Z" fill="#216DC2"/>
<path d="M105.064 6.43631H100.636V21.0884H105.064V6.43631Z" fill="#216DC2"/>
<path d="M15.5577 7.38428C14.4801 5.88747 12.9815 5.25548 11.8871 5.03927L2.96335 3.32625C4.93331 1.28061 7.69463 0 10.7758 0C14.4127 0 17.6454 1.8128 19.5986 4.59023L15.5577 7.38428ZM15.5577 14.2863C14.4801 15.7831 12.9815 16.415 11.8871 16.6313L2.96335 18.3443C4.93331 20.3899 7.69463 21.6705 10.7758 21.6705C14.4127 21.6705 17.6454 19.8577 19.5986 17.0803L15.5577 14.2863ZM5.16904 11.592H0C0.134698 13.6043 0.825022 15.4671 1.90261 17.0304L7.76197 15.9161C6.29713 15.018 5.37109 13.4547 5.16904 11.592ZM7.66095 5.8542L1.88577 4.73991C0.808186 6.30325 0.134698 8.13272 0 10.1118H5.16904C5.35425 8.28241 6.24662 6.7523 7.66095 5.8542Z" fill="#216DC2"/>
</g>
</g>
<defs>
<clipPath id="clip0_45_35">
<rect width="116" height="27" fill="white"/>
</clipPath>
</defs>
</svg>
