<svg width="47" height="47" viewBox="0 0 47 47" fill="none" xmlns="http://www.w3.org/2000/svg">
<path d="M18.658 8.92399C20.7099 3.64133 21.7358 1 23.5 1C25.2642 1 26.2901 3.64133 28.342 8.924L28.4376 9.16999C29.5968 12.1544 30.1764 13.6467 31.3576 14.5536C32.5389 15.4606 34.0896 15.6041 37.1909 15.8909L37.7515 15.9427C42.8272 16.4122 45.3651 16.6469 45.9081 18.3144C46.4512 19.9818 44.5665 21.7526 40.797 25.2942L39.539 26.4762C37.6308 28.269 36.6768 29.1654 36.2321 30.3403C36.1491 30.5594 36.0802 30.784 36.0256 31.0125C35.7333 32.2372 36.0127 33.5377 36.5715 36.1385L36.7454 36.9481C37.7723 41.7279 38.2858 44.1178 37.3893 45.1486C37.0543 45.5338 36.6189 45.8112 36.1352 45.9475C34.8409 46.3122 33.0032 44.7658 29.328 41.673C26.9146 39.6421 25.708 38.6267 24.3226 38.3983C23.7776 38.3084 23.2224 38.3084 22.6774 38.3983C21.292 38.6267 20.0854 39.6421 17.672 41.673C13.9968 44.7658 12.1591 46.3122 10.8648 45.9475C10.3811 45.8112 9.94571 45.5338 9.61071 45.1486C8.71422 44.1178 9.22767 41.7279 10.2546 36.9481L10.4285 36.1385C10.9873 33.5377 11.2667 32.2372 10.9744 31.0125C10.9198 30.784 10.8509 30.5594 10.7679 30.3403C10.3232 29.1654 9.36916 28.269 7.46101 26.4762L6.20297 25.2942C2.43355 21.7526 0.548836 19.9818 1.09187 18.3144C1.63491 16.6469 4.17276 16.4122 9.24845 15.9427L9.80912 15.8909C12.9104 15.6041 14.4611 15.4606 15.6424 14.5536C16.8236 13.6467 17.4032 12.1544 18.5624 9.16998L18.658 8.92399Z" stroke="#93C5FD" stroke-width="2"/>
</svg>
